<svg xmlns="http://www.w3.org/2000/svg" viewBox="0 0 64 64" aria-label="Creative Commons" role="img"><circle cx="32" cy="32" r="30" fill="#fff" stroke="currentColor" stroke-width="4"/><path fill="currentColor" d="M24.3 26.5c1.6-1.6 3.5-2.4 5.7-2.4 2.3 0 4.2.8 5.8 2.4l3.4-3.4c-2.6-2.6-5.7-3.9-9.2-3.9s-6.6 1.3-9.2 3.9c-2.6 2.6-3.9 5.7-3.9 9.2s1.3 6.6 3.9 9.2 5.7 3.9 9.2 3.9 6.6-1.3 9.2-3.9l-3.4-3.4c-1.6 1.6-3.5 2.4-5.8 2.4-2.2 0-4.1-.8-5.7-2.4-1.6-1.6-2.4-3.5-2.4-5.8s.8-4.2 2.4-5.8zm21.3 0c1.6-1.6 3.5-2.4 5.7-2.4 2.3 0 4.2.8 5.8 2.4l-2.6 2.6c.6.9.9 2 .9 3.2 0 1.7-.6 3.2-1.8 4.4l3.4 3.4c2.2-2.2 3.3-4.8 3.3-7.8 0-3.1-1.1-5.6-3.3-7.8-2.6-2.6-5.7-3.9-9.2-3.9s-6.6 1.3-9.2 3.9c-2.6 2.6-3.9 5.7-3.9 9.2s1.3 6.6 3.9 9.2 5.7 3.9 9.2 3.9 6.6-1.3 9.2-3.9l-3.4-3.4c-1.6 1.6-3.5 2.4-5.8 2.4-2.2 0-4.1-.8-5.7-2.4-1.6-1.6-2.4-3.5-2.4-5.8s.8-4.2 2.4-5.8z" transform="translate(-9 0)"/></svg>
