<svg xmlns="http://www.w3.org/2000/svg" viewBox="0 0 1200 630" role="img" aria-hidden="true">
  <defs>
    <linearGradient id="bg" x1="0%" y1="0%" x2="100%" y2="100%">
      <stop offset="0%" stop-color="#0e1628"/>
      <stop offset="100%" stop-color="#360b0f"/>
    </linearGradient>
    <radialGradient id="glow" cx="50%" cy="48%" r="46%">
      <stop offset="0%" stop-color="#cc615f" stop-opacity="0.20"/>
      <stop offset="100%" stop-color="#cc615f" stop-opacity="0"/>
    </radialGradient>
    <linearGradient id="ov" x1="0" y1="0" x2="0" y2="1">
      <stop offset="0%" stop-color="#0e1628" stop-opacity="0"/>
      <stop offset="100%" stop-color="#0e1628" stop-opacity="0.45"/>
    </linearGradient>
  </defs>
  <rect width="1200" height="630" fill="url(#bg)"/>
  <rect width="1200" height="630" fill="url(#glow)"/>
  <g stroke="#cc615f" stroke-opacity="0.06" stroke-width="1">
    <line x1="0" y1="157" x2="1200" y2="157"/><line x1="0" y1="315" x2="1200" y2="315"/>
    <line x1="0" y1="472" x2="1200" y2="472"/><line x1="300" y1="0" x2="300" y2="630"/>
    <line x1="600" y1="0" x2="600" y2="630"/><line x1="900" y1="0" x2="900" y2="630"/>
  </g>
  <g fill="none" stroke="#cc615f" stroke-opacity="0.5" stroke-width="3">
    <circle cx="600" cy="315" r="150"/>
    <circle cx="600" cy="315" r="118" stroke-opacity="0.25" stroke-width="2"/>
  </g>
  <g stroke="#df9591" stroke-opacity="0.4" stroke-width="2">
    <line x1="600" y1="150" x2="600" y2="175"/><line x1="600" y1="455" x2="600" y2="480"/>
    <line x1="435" y1="315" x2="460" y2="315"/><line x1="740" y1="315" x2="765" y2="315"/>
  </g>
  <polygon points="600,315 560,355 660,215" fill="#b12028" fill-opacity="0.55"/>
  <polygon points="600,315 640,275 540,415" fill="#7f1820" fill-opacity="0.5"/>
  <circle cx="600" cy="315" r="12" fill="#efc6c2" fill-opacity="0.7"/>
  <rect width="1200" height="630" fill="url(#ov)"/>
</svg>
