<?xml version="1.0" encoding="UTF-8"?>
<svg id="Capa_1" xmlns="http://www.w3.org/2000/svg" version="1.1" viewBox="0 0 640 300">
  <defs>
    <style>
      .st0 {
        fill: #ffffff;
      }
    </style>
  </defs>
  <path class="st0" d="M130.5,59.58v89.62c0,7.54-1.81,13.42-5.43,17.63-3.63,4.22-8.76,6.32-15.42,6.32s-11.79-2.1-15.42-6.32c-3.63-4.21-5.43-10.09-5.43-17.63V59.58h-52.79v95.38c0,9.32,1.48,18.01,4.44,26.07,2.95,8.06,7.47,15.05,13.53,20.96,6.06,5.92,13.64,10.57,22.74,13.97,9.1,3.4,19.78,5.1,32.05,5.1s23.03-1.7,32.28-5.1c9.24-3.4,16.97-8.06,23.18-13.97,6.21-5.91,10.9-12.9,14.09-20.96,3.18-8.06,4.77-16.75,4.77-26.07V59.58h-52.57Z"/>
  <path class="st0" d="M255.39,104.39h11.76c11.09,0,19.96,2.84,26.62,8.51,6.66,5.67,9.98,13.6,9.98,23.76,0,12.24-3.33,21.04-9.98,26.42-6.66,5.38-16.19,8.07-28.62,8.07h-9.76v-66.77ZM204.59,59.58v157.05h63c11.68,0,22.92-1.55,33.71-4.66,10.79-3.1,20.33-7.87,28.62-14.31,8.28-6.43,14.9-14.67,19.85-24.73,4.95-10.06,7.43-21.96,7.43-35.71,0-15.09-2.59-27.58-7.76-37.49-5.18-9.91-12.09-17.85-20.74-23.85-8.65-5.99-18.63-10.21-29.95-12.64-11.31-2.44-23.18-3.66-35.6-3.66h-58.56Z"/>
  <path class="st0" d="M554.08,135.08c-27.57,0-49.92,22.35-49.92,49.92s22.35,49.92,49.92,49.92,49.92-22.35,49.92-49.92-22.35-49.92-49.92-49.92ZM587.68,196.1h-22.5v22.5h-22.2v-22.5h-22.5v-22.2h22.5v-22.5h22.2v22.5h22.5v22.2Z"/>
  <path class="st0" d="M495.49,184.99c0-18.04,8.16-34.18,20.98-44.92v-20.6h-72.09v41.48h25.28v11.98c-1.33.74-3.18,1.29-5.54,1.66-2.37.37-4.66.55-6.87.55-12.57,0-21.7-3.44-27.4-10.32-5.69-6.88-8.54-15.79-8.54-26.73,0-5.47.96-10.43,2.88-14.86,1.92-4.44,4.44-8.24,7.54-11.42,3.1-3.18,6.69-5.62,10.76-7.32,4.07-1.7,8.25-2.55,12.54-2.55,6.5,0,11.98,1.14,16.41,3.44,4.44,2.29,8.28,5.36,11.53,9.21l30.83-37.05c-6.95-6.95-15.93-12.42-26.95-16.42-11.02-3.99-22.67-5.99-34.94-5.99s-22.92,1.96-33.28,5.88c-10.35,3.92-19.37,9.5-27.06,16.75-7.69,7.25-13.76,15.97-18.19,26.18-4.44,10.2-6.66,21.59-6.66,34.16s2.22,23.96,6.66,34.16c4.43,10.21,10.53,18.9,18.3,26.07,7.76,7.17,16.93,12.68,27.51,16.53,10.57,3.84,22.07,5.77,34.49,5.77,5.91,0,11.83-.41,17.74-1.22,5.91-.82,11.57-1.88,16.97-3.22,4.54-1.12,11.55-3.46,13.67-4.18-4.21-8.08-6.59-17.27-6.59-27.01Z"/>
</svg>
